STARTFONT 2.1
FONT serifi12.bits
SIZE 13 75 75
FONTBOUNDINGBOX 11 14 0 0
STARTPROPERTIES 3
FONT_DESCENT 3
FONT_ASCENT 11
COPYRIGHT "Share and enjoy."
ENDPROPERTIES
CHARS 125
STARTCHAR C002
ENCODING 2
SWIDTH 846 0
DWIDTH 11 0
BBX 11 14 0 -3
BITMAP
0000
0200
0200
0000
0200
0400
0800
1000
2400
2200
1c00
0000
0000
0000
ENDCHAR
STARTCHAR C003
ENCODING 3
SWIDTH 846 0
DWIDTH 11 0
BBX 11 14 0 -3
BITMAP
0000
0000
0000
0000
0700
0880
1100
1000
1000
1100
0e00
0800
0400
1800
ENDCHAR
STARTCHAR C004
ENCODING 4
SWIDTH 846 0
DWIDTH 11 0
BBX 11 14 0 -3
BITMAP
0000
0240
0480
0000
0000
0000
0000
0000
0000
0000
0000
0000
0000
0000
ENDCHAR
STARTCHAR C005
ENCODING 5
SWIDTH 846 0
DWIDTH 11 0
BBX 11 14 0 -3
BITMAP
0200
0100
0080
0000
0000
0000
0000
0000
0000
0000
0000
0000
0000
0000
ENDCHAR
STARTCHAR C006
ENCODING 6
SWIDTH 846 0
DWIDTH 11 0
BBX 11 14 0 -3
BITMAP
0000
0460
0ca0
1100
7fc0
1100
1100
1100
2200
2200
2200
4400
cc00
8c00
ENDCHAR
STARTCHAR C007
ENCODING 7
SWIDTH 846 0
DWIDTH 11 0
BBX 11 14 0 -3
BITMAP
0000
0200
0400
0800
0c00
0000
0000
0000
0000
0000
0000
0000
0000
0000
ENDCHAR
STARTCHAR C010
ENCODING 8
SWIDTH 846 0
DWIDTH 11 0
BBX 11 14 0 -3
BITMAP
0000
0200
0200
0000
0400
0400
0400
0400
0800
0800
0800
0000
0000
0000
ENDCHAR
STARTCHAR C011
ENCODING 9
SWIDTH 846 0
DWIDTH 11 0
BBX 11 14 0 -3
BITMAP
0000
0000
0000
0000
0000
0000
0000
0000
0000
0000
0000
0000
0000
0000
ENDCHAR
STARTCHAR C012
ENCODING 10
SWIDTH 846 0
DWIDTH 11 0
BBX 11 14 0 -3
BITMAP
0000
0000
0000
0000
0000
0000
0000
0000
0000
0000
0000
0000
0000
0000
ENDCHAR
STARTCHAR C013
ENCODING 11
SWIDTH 846 0
DWIDTH 11 0
BBX 11 14 0 -3
BITMAP
0100
0200
0400
0000
0000
0000
0000
0000
0000
0000
0000
0000
0000
0000
ENDCHAR
STARTCHAR C014
ENCODING 12
SWIDTH 846 0
DWIDTH 11 0
BBX 11 14 0 -3
BITMAP
0000
0000
0000
0000
0000
0000
0000
0000
0000
0000
0000
0000
0000
0000
ENDCHAR
STARTCHAR C015
ENCODING 13
SWIDTH 846 0
DWIDTH 11 0
BBX 11 14 0 -3
BITMAP
0000
0000
0000
0000
0000
0000
0000
0000
0000
0000
0000
0000
0000
0000
ENDCHAR
STARTCHAR C016
ENCODING 14
SWIDTH 846 0
DWIDTH 11 0
BBX 11 14 0 -3
BITMAP
0000
0000
0f80
0000
0000
0000
0000
0000
0000
0000
0000
0000
0000
0000
ENDCHAR
STARTCHAR C017
ENCODING 15
SWIDTH 846 0
DWIDTH 11 0
BBX 11 14 0 -3
BITMAP
0000
0000
0000
0000
0000
0000
0000
0000
0000
0000
0000
0000
0000
0000
ENDCHAR
STARTCHAR C020
ENCODING 16
SWIDTH 846 0
DWIDTH 11 0
BBX 11 14 0 -3
BITMAP
0000
0640
0980
0000
0000
0000
0000
0000
0000
0000
0000
0000
0000
0000
ENDCHAR
STARTCHAR C021
ENCODING 17
SWIDTH 846 0
DWIDTH 11 0
BBX 11 14 0 -3
BITMAP
0000
09a0
1aa0
2200
7fc0
2240
2280
2280
2480
24a0
24c0
4800
d800
9800
ENDCHAR
STARTCHAR C022
ENCODING 18
SWIDTH 846 0
DWIDTH 11 0
BBX 11 14 0 -3
BITMAP
0000
09e0
1aa0
2220
7fe0
2240
2240
2240
2480
24a0
24c0
4800
d800
9800
ENDCHAR
STARTCHAR C023
ENCODING 19
SWIDTH 846 0
DWIDTH 11 0
BBX 11 14 0 -3
BITMAP
0000
0000
0000
0000
0000
0000
ffe0
0000
0000
0000
0000
0000
0000
0000
ENDCHAR
STARTCHAR C024
ENCODING 20
SWIDTH 846 0
DWIDTH 11 0
BBX 11 14 0 -3
BITMAP
0000
0320
0520
0800
3fc0
0840
0880
0880
1100
1120
10c0
2000
a000
c000
ENDCHAR
STARTCHAR C025
ENCODING 21
SWIDTH 846 0
DWIDTH 11 0
BBX 11 14 0 -3
BITMAP
0000
0360
0520
0820
3fe0
0840
0840
0840
1080
10a0
10c0
2000
a000
c000
ENDCHAR
STARTCHAR C026
ENCODING 22
SWIDTH 846 0
DWIDTH 11 0
BBX 11 14 0 -3
BITMAP
0000
0000
0000
0000
0000
0000
3fc0
0000
0000
0000
0000
0000
0000
0000
ENDCHAR
STARTCHAR C027
ENCODING 23
SWIDTH 846 0
DWIDTH 11 0
BBX 11 14 0 -3
BITMAP
0000
0440
0380
0000
0000
0000
0000
0000
0000
0000
0000
0000
0000
0000
ENDCHAR
STARTCHAR C030
ENCODING 24
SWIDTH 846 0
DWIDTH 11 0
BBX 11 14 0 -3
BITMAP
0000
0000
0000
0000
0000
0000
3fc0
0000
0000
0000
0000
0000
0000
0000
ENDCHAR
STARTCHAR C031
ENCODING 25
SWIDTH 846 0
DWIDTH 11 0
BBX 11 14 0 -3
BITMAP
0000
0000
0000
0000
0000
0000
0000
0000
0000
0000
0000
0000
0000
0000
ENDCHAR
STARTCHAR C032
ENCODING 26
SWIDTH 846 0
DWIDTH 11 0
BBX 11 14 0 -3
BITMAP
0000
0000
0000
0000
0000
0000
0000
0000
0000
0000
0000
0000
0000
0000
ENDCHAR
STARTCHAR C033
ENCODING 27
SWIDTH 846 0
DWIDTH 11 0
BBX 11 14 0 -3
BITMAP
0000
0000
0000
0000
0000
0000
0000
0000
0000
0000
0000
0000
0000
0000
ENDCHAR
STARTCHAR C034
ENCODING 28
SWIDTH 846 0
DWIDTH 11 0
BBX 11 14 0 -3
BITMAP
0000
0000
0000
0000
0000
0000
0000
0000
0000
0000
0000
0000
0000
0000
ENDCHAR
STARTCHAR C035
ENCODING 29
SWIDTH 846 0
DWIDTH 11 0
BBX 11 14 0 -3
BITMAP
0000
0000
0000
0000
0000
0000
0000
0000
0000
0000
0000
0000
0300
0300
ENDCHAR
STARTCHAR C036
ENCODING 30
SWIDTH 846 0
DWIDTH 11 0
BBX 11 14 0 -3
BITMAP
0000
0640
0980
0000
0000
0000
0000
0000
0000
0000
0000
0000
0000
0000
ENDCHAR
STARTCHAR C037
ENCODING 31
SWIDTH 846 0
DWIDTH 11 0
BBX 11 14 0 -3
BITMAP
03c0
0240
0180
0000
0000
0000
0000
0000
0000
0000
0000
0000
0000
0000
ENDCHAR
STARTCHAR C040
ENCODING 32
SWIDTH 846 0
DWIDTH 11 0
BBX 11 14 0 -3
BITMAP
0000
0000
0000
0000
0000
0000
0000
0000
0000
0000
0000
0000
0000
0000
ENDCHAR
STARTCHAR !
ENCODING 33
SWIDTH 846 0
DWIDTH 11 0
BBX 11 14 0 -3
BITMAP
0000
0100
0100
0100
0200
0200
0200
0200
0000
0400
0400
0000
0000
0000
ENDCHAR
STARTCHAR "
ENCODING 34
SWIDTH 846 0
DWIDTH 11 0
BBX 11 14 0 -3
BITMAP
0000
0480
0480
0900
0900
0000
0000
0000
0000
0000
0000
0000
0000
0000
ENDCHAR
STARTCHAR #
ENCODING 35
SWIDTH 846 0
DWIDTH 11 0
BBX 11 14 0 -3
BITMAP
0000
0120
0120
0240
0fe0
0480
0900
0900
3f80
1200
2400
0000
0000
0000
ENDCHAR
STARTCHAR $
ENCODING 36
SWIDTH 846 0
DWIDTH 11 0
BBX 11 14 0 -3
BITMAP
0100
0780
0940
0900
0a00
0600
0300
0500
0500
2900
1e00
0800
0000
0000
ENDCHAR
STARTCHAR %
ENCODING 37
SWIDTH 846 0
DWIDTH 11 0
BBX 11 14 0 -3
BITMAP
1cc0
2740
4480
4500
4a00
34c0
0520
0a20
1220
2240
4180
0000
0000
0000
ENDCHAR
STARTCHAR &
ENCODING 38
SWIDTH 846 0
DWIDTH 11 0
BBX 11 14 0 -3
BITMAP
0000
0600
0900
0900
0a00
1400
25c0
4480
4500
4640
3980
0000
0000
0000
ENDCHAR
STARTCHAR '
ENCODING 39
SWIDTH 846 0
DWIDTH 11 0
BBX 11 14 0 -3
BITMAP
0000
0600
0200
0400
0800
0000
0000
0000
0000
0000
0000
0000
0000
0000
ENDCHAR
STARTCHAR (
ENCODING 40
SWIDTH 846 0
DWIDTH 11 0
BBX 11 14 0 -3
BITMAP
0080
0100
0200
0400
0800
0800
1000
1000
1000
1000
1000
0800
0800
0400
ENDCHAR
STARTCHAR )
ENCODING 41
SWIDTH 846 0
DWIDTH 11 0
BBX 11 14 0 -3
BITMAP
0200
0100
0100
0080
0080
0080
0080
0080
0100
0100
0200
0400
0800
1000
ENDCHAR
STARTCHAR *
ENCODING 42
SWIDTH 846 0
DWIDTH 11 0
BBX 11 14 0 -3
BITMAP
0200
0a80
0700
0700
0a80
0200
0000
0000
0000
0000
0000
0000
0000
0000
ENDCHAR
STARTCHAR +
ENCODING 43
SWIDTH 846 0
DWIDTH 11 0
BBX 11 14 0 -3
BITMAP
0000
0000
0000
0000
0100
0100
0200
1fc0
0200
0400
0400
0000
0000
0000
ENDCHAR
STARTCHAR ,
ENCODING 44
SWIDTH 846 0
DWIDTH 11 0
BBX 11 14 0 -3
BITMAP
0000
0000
0000
0000
0000
0000
0000
0000
0000
0600
0200
0200
0400
0000
ENDCHAR
STARTCHAR -
ENCODING 45
SWIDTH 846 0
DWIDTH 11 0
BBX 11 14 0 -3
BITMAP
0000
0000
0000
0000
0000
0000
0f80
0000
0000
0000
0000
0000
0000
0000
ENDCHAR
STARTCHAR .
ENCODING 46
SWIDTH 846 0
DWIDTH 11 0
BBX 11 14 0 -3
BITMAP
0000
0000
0000
0000
0000
0000
0000
0000
0000
0200
0200
0000
0000
0000
ENDCHAR
STARTCHAR /
ENCODING 47
SWIDTH 846 0
DWIDTH 11 0
BBX 11 14 0 -3
BITMAP
0000
0080
0080
0100
0200
0200
0400
0400
0800
1000
1000
0000
0000
0000
ENDCHAR
STARTCHAR 0
ENCODING 48
SWIDTH 846 0
DWIDTH 11 0
BBX 11 14 0 -3
BITMAP
0000
0300
0480
0880
0880
1080
1080
1100
1100
1200
0c00
0000
0000
0000
ENDCHAR
STARTCHAR 1
ENCODING 49
SWIDTH 846 0
DWIDTH 11 0
BBX 11 14 0 -3
BITMAP
0000
0300
0500
0100
0200
0200
0200
0200
0400
0400
0e00
0000
0000
0000
ENDCHAR
STARTCHAR 2
ENCODING 50
SWIDTH 846 0
DWIDTH 11 0
BBX 11 14 0 -3
BITMAP
0000
0300
0480
0880
0080
0100
0200
0400
0800
1080
1f00
0000
0000
0000
ENDCHAR
STARTCHAR 3
ENCODING 51
SWIDTH 846 0
DWIDTH 11 0
BBX 11 14 0 -3
BITMAP
0000
0300
0480
0080
0080
0700
0100
0100
0100
3200
1c00
0000
0000
0000
ENDCHAR
STARTCHAR 4
ENCODING 52
SWIDTH 846 0
DWIDTH 11 0
BBX 11 14 0 -3
BITMAP
0000
0080
0180
0280
0480
0900
1100
2100
3f80
0200
0200
0000
0000
0000
ENDCHAR
STARTCHAR 5
ENCODING 53
SWIDTH 846 0
DWIDTH 11 0
BBX 11 14 0 -3
BITMAP
0000
0380
0400
0400
0c00
0200
0100
0100
0100
3200
1c00
0000
0000
0000
ENDCHAR
STARTCHAR 6
ENCODING 54
SWIDTH 846 0
DWIDTH 11 0
BBX 11 14 0 -3
BITMAP
0000
0180
0600
0800
1600
1100
2100
2100
2100
2200
1c00
0000
0000
0000
ENDCHAR
STARTCHAR 7
ENCODING 55
SWIDTH 846 0
DWIDTH 11 0
BBX 11 14 0 -3
BITMAP
0000
0f80
1080
0100
0100
0200
0200
0400
0400
0800
0800
0000
0000
0000
ENDCHAR
STARTCHAR 8
ENCODING 56
SWIDTH 846 0
DWIDTH 11 0
BBX 11 14 0 -3
BITMAP
0000
0700
0880
0880
0900
0600
0900
1100
1100
1100
0e00
0000
0000
0000
ENDCHAR
STARTCHAR 9
ENCODING 57
SWIDTH 846 0
DWIDTH 11 0
BBX 11 14 0 -3
BITMAP
0000
0700
0880
1080
1080
1080
1100
0d00
0200
0c00
3000
0000
0000
0000
ENDCHAR
STARTCHAR :
ENCODING 58
SWIDTH 846 0
DWIDTH 11 0
BBX 11 14 0 -3
BITMAP
0000
0000
0000
0000
0200
0200
0000
0000
0000
0400
0400
0000
0000
0000
ENDCHAR
STARTCHAR ;
ENCODING 59
SWIDTH 846 0
DWIDTH 11 0
BBX 11 14 0 -3
BITMAP
0000
0000
0000
0000
0100
0100
0000
0000
0000
0600
0200
0200
0400
0000
ENDCHAR
STARTCHAR <
ENCODING 60
SWIDTH 846 0
DWIDTH 11 0
BBX 11 14 0 -3
BITMAP
0000
0080
0100
0200
0400
0800
1000
1000
0800
0800
0400
0000
0000
0000
ENDCHAR
STARTCHAR =
ENCODING 61
SWIDTH 846 0
DWIDTH 11 0
BBX 11 14 0 -3
BITMAP
0000
0000
0000
0000
0000
0000
0f80
0000
1f00
0000
0000
0000
0000
0000
ENDCHAR
STARTCHAR >
ENCODING 62
SWIDTH 846 0
DWIDTH 11 0
BBX 11 14 0 -3
BITMAP
0000
0200
0100
0100
0080
0080
0100
0200
0400
0800
1000
0000
0000
0000
ENDCHAR
STARTCHAR ?
ENCODING 63
SWIDTH 846 0
DWIDTH 11 0
BBX 11 14 0 -3
BITMAP
0000
0700
0880
0480
0100
0200
0400
0800
0000
0800
0800
0000
0000
0000
ENDCHAR
STARTCHAR @
ENCODING 64
SWIDTH 846 0
DWIDTH 11 0
BBX 11 14 0 -3
BITMAP
0f00
30c0
4040
4520
8b20
9120
9240
94c0
4f00
4000
3080
0f00
0000
0000
ENDCHAR
STARTCHAR A
ENCODING 65
SWIDTH 846 0
DWIDTH 11 0
BBX 11 14 0 -3
BITMAP
0000
0180
0180
0280
0280
0680
0480
0f80
0880
1080
39c0
0000
0000
0000
ENDCHAR
STARTCHAR B
ENCODING 66
SWIDTH 846 0
DWIDTH 11 0
BBX 11 14 0 -3
BITMAP
0000
0f80
0440
0440
0880
0f00
0880
0880
1080
1080
3f00
0000
0000
0000
ENDCHAR
STARTCHAR C
ENCODING 67
SWIDTH 846 0
DWIDTH 11 0
BBX 11 14 0 -3
BITMAP
0000
0740
18c0
2040
2000
4000
4000
4000
4080
2100
1e00
0000
0000
0000
ENDCHAR
STARTCHAR D
ENCODING 68
SWIDTH 846 0
DWIDTH 11 0
BBX 11 14 0 -3
BITMAP
0000
1f00
0880
0840
1040
1040
1040
2080
2080
2100
7e00
0000
0000
0000
ENDCHAR
STARTCHAR E
ENCODING 69
SWIDTH 846 0
DWIDTH 11 0
BBX 11 14 0 -3
BITMAP
0000
1fc0
0840
0800
1100
1e00
1200
2000
2080
2080
7f00
0000
0000
0000
ENDCHAR
STARTCHAR F
ENCODING 70
SWIDTH 846 0
DWIDTH 11 0
BBX 11 14 0 -3
BITMAP
0000
1fc0
0840
0800
1100
1e00
1200
2000
2000
2000
7000
0000
0000
0000
ENDCHAR
STARTCHAR G
ENCODING 71
SWIDTH 846 0
DWIDTH 11 0
BBX 11 14 0 -3
BITMAP
0000
0740
18c0
2040
2000
4000
41c0
4080
4100
2100
1e00
0000
0000
0000
ENDCHAR
STARTCHAR H
ENCODING 72
SWIDTH 846 0
DWIDTH 11 0
BBX 11 14 0 -3
BITMAP
0000
1ce0
0840
0840
1080
1f80
1080
1080
2100
2100
7380
0000
0000
0000
ENDCHAR
STARTCHAR I
ENCODING 73
SWIDTH 846 0
DWIDTH 11 0
BBX 11 14 0 -3
BITMAP
0000
0700
0200
0200
0400
0400
0400
0400
0800
0800
1c00
0000
0000
0000
ENDCHAR
STARTCHAR J
ENCODING 74
SWIDTH 846 0
DWIDTH 11 0
BBX 11 14 0 -3
BITMAP
0000
0380
0100
0100
0200
0200
0200
0200
2400
3400
1800
0000
0000
0000
ENDCHAR
STARTCHAR K
ENCODING 75
SWIDTH 846 0
DWIDTH 11 0
BBX 11 14 0 -3
BITMAP
0000
1dc0
0880
0900
1200
1c00
1400
1200
2200
2100
7380
0000
0000
0000
ENDCHAR
STARTCHAR L
ENCODING 76
SWIDTH 846 0
DWIDTH 11 0
BBX 11 14 0 -3
BITMAP
0000
0e00
0400
0400
0800
0800
0800
0840
1040
1080
3f80
0000
0000
0000
ENDCHAR
STARTCHAR M
ENCODING 77
SWIDTH 846 0
DWIDTH 11 0
BBX 11 14 0 -3
BITMAP
0000
18e0
1940
1940
1980
1980
1a80
1a80
2d00
2d00
7980
0000
0000
0000
ENDCHAR
STARTCHAR N
ENCODING 78
SWIDTH 846 0
DWIDTH 11 0
BBX 11 14 0 -3
BITMAP
0000
18e0
0840
0c40
1480
1480
1280
1280
2300
2100
7100
0000
0000
0000
ENDCHAR
STARTCHAR O
ENCODING 79
SWIDTH 846 0
DWIDTH 11 0
BBX 11 14 0 -3
BITMAP
0000
0700
1880
2040
2040
4040
4040
4080
4080
2300
1c00
0000
0000
0000
ENDCHAR
STARTCHAR P
ENCODING 80
SWIDTH 846 0
DWIDTH 11 0
BBX 11 14 0 -3
BITMAP
0000
0f80
0440
0440
0840
0880
0f00
0800
1000
1000
3800
0000
0000
0000
ENDCHAR
STARTCHAR Q
ENCODING 81
SWIDTH 846 0
DWIDTH 11 0
BBX 11 14 0 -3
BITMAP
0000
0700
1880
2040
2040
4040
4040
4080
4080
2300
1c00
1000
3c80
0700
ENDCHAR
STARTCHAR R
ENCODING 82
SWIDTH 846 0
DWIDTH 11 0
BBX 11 14 0 -3
BITMAP
0000
0f80
0440
0440
0840
0f80
0a00
0900
1100
1080
38c0
0000
0000
0000
ENDCHAR
STARTCHAR S
ENCODING 83
SWIDTH 846 0
DWIDTH 11 0
BBX 11 14 0 -3
BITMAP
0000
0740
0880
0880
0800
0700
0080
0080
1080
1100
2e00
0000
0000
0000
ENDCHAR
STARTCHAR T
ENCODING 84
SWIDTH 846 0
DWIDTH 11 0
BBX 11 14 0 -3
BITMAP
0000
3fc0
4440
4480
0800
0800
0800
0800
1000
1000
3800
0000
0000
0000
ENDCHAR
STARTCHAR U
ENCODING 85
SWIDTH 846 0
DWIDTH 11 0
BBX 11 14 0 -3
BITMAP
0000
39c0
1080
1080
2100
2100
2100
4100
4200
4200
3c00
0000
0000
0000
ENDCHAR
STARTCHAR V
ENCODING 86
SWIDTH 846 0
DWIDTH 11 0
BBX 11 14 0 -3
BITMAP
0000
39c0
1080
1100
1100
1200
1200
1400
1400
1800
1800
0000
0000
0000
ENDCHAR
STARTCHAR W
ENCODING 87
SWIDTH 846 0
DWIDTH 11 0
BBX 11 14 0 -3
BITMAP
0000
eee0
4440
4c80
4c80
5500
5500
5500
5500
6600
6600
0000
0000
0000
ENDCHAR
STARTCHAR X
ENCODING 88
SWIDTH 846 0
DWIDTH 11 0
BBX 11 14 0 -3
BITMAP
0000
39c0
1080
0900
0a00
0600
0c00
0a00
1200
2100
7380
0000
0000
0000
ENDCHAR
STARTCHAR Y
ENCODING 89
SWIDTH 846 0
DWIDTH 11 0
BBX 11 14 0 -3
BITMAP
0000
71c0
2080
1100
1200
1400
0800
0800
1000
1000
3800
0000
0000
0000
ENDCHAR
STARTCHAR Z
ENCODING 90
SWIDTH 846 0
DWIDTH 11 0
BBX 11 14 0 -3
BITMAP
0000
0fc0
0840
1080
0100
0200
0400
0800
1040
2080
3f80
0000
0000
0000
ENDCHAR
STARTCHAR [
ENCODING 91
SWIDTH 846 0
DWIDTH 11 0
BBX 11 14 0 -3
BITMAP
03c0
0200
0200
0400
0400
0400
0800
0800
1000
1000
1000
2000
2000
3c00
ENDCHAR
STARTCHAR \
ENCODING 92
SWIDTH 846 0
DWIDTH 11 0
BBX 11 14 0 -3
BITMAP
0000
0400
0400
0400
0200
0200
0200
0200
0100
0100
0100
0000
0000
0000
ENDCHAR
STARTCHAR ]
ENCODING 93
SWIDTH 846 0
DWIDTH 11 0
BBX 11 14 0 -3
BITMAP
03c0
0040
0040
0080
0080
0080
0100
0100
0200
0200
0200
0400
0400
3c00
ENDCHAR
STARTCHAR ^
ENCODING 94
SWIDTH 846 0
DWIDTH 11 0
BBX 11 14 0 -3
BITMAP
0000
0000
0000
0200
0700
0a80
0200
0400
0400
0400
0000
0000
0000
0000
ENDCHAR
STARTCHAR _
ENCODING 95
SWIDTH 846 0
DWIDTH 11 0
BBX 11 14 0 -3
BITMAP
0000
0000
0000
0000
0200
0400
1fc0
0800
0400
0000
0000
0000
0000
0000
ENDCHAR
STARTCHAR `
ENCODING 96
SWIDTH 846 0
DWIDTH 11 0
BBX 11 14 0 -3
BITMAP
0000
0200
0400
0800
0c00
0000
0000
0000
0000
0000
0000
0000
0000
0000
ENDCHAR
STARTCHAR a
ENCODING 97
SWIDTH 846 0
DWIDTH 11 0
BBX 11 14 0 -3
BITMAP
0000
0000
0000
0000
0680
0900
1100
1100
2200
2480
1b00
0000
0000
0000
ENDCHAR
STARTCHAR b
ENCODING 98
SWIDTH 846 0
DWIDTH 11 0
BBX 11 14 0 -3
BITMAP
0000
0c00
0400
0400
0b00
0880
0880
1080
1080
1100
0e00
0000
0000
0000
ENDCHAR
STARTCHAR c
ENCODING 99
SWIDTH 846 0
DWIDTH 11 0
BBX 11 14 0 -3
BITMAP
0000
0000
0000
0000
0700
0880
1100
1000
1000
1100
0e00
0000
0000
0000
ENDCHAR
STARTCHAR d
ENCODING 100
SWIDTH 846 0
DWIDTH 11 0
BBX 11 14 0 -3
BITMAP
0000
0180
0080
0080
0f00
1100
2100
2200
2200
2680
1900
0000
0000
0000
ENDCHAR
STARTCHAR e
ENCODING 101
SWIDTH 846 0
DWIDTH 11 0
BBX 11 14 0 -3
BITMAP
0000
0000
0000
0000
0600
0900
1100
1200
1c00
1100
0e00
0000
0000
0000
ENDCHAR
STARTCHAR f
ENCODING 102
SWIDTH 846 0
DWIDTH 11 0
BBX 11 14 0 -3
BITMAP
0000
0180
0280
0400
1f00
0400
0400
0400
0800
0800
0800
1000
5000
6000
ENDCHAR
STARTCHAR g
ENCODING 103
SWIDTH 846 0
DWIDTH 11 0
BBX 11 14 0 -3
BITMAP
0000
0000
0000
0000
0680
0900
1100
1100
0e00
1000
2e00
2100
2100
1e00
ENDCHAR
STARTCHAR h
ENCODING 104
SWIDTH 846 0
DWIDTH 11 0
BBX 11 14 0 -3
BITMAP
0000
1800
0800
0800
1600
1900
1100
2100
2200
2280
2300
0000
0000
0000
ENDCHAR
STARTCHAR i
ENCODING 105
SWIDTH 846 0
DWIDTH 11 0
BBX 11 14 0 -3
BITMAP
0000
0100
0100
0000
0600
0200
0400
0400
0800
0900
0600
0000
0000
0000
ENDCHAR
STARTCHAR j
ENCODING 106
SWIDTH 846 0
DWIDTH 11 0
BBX 11 14 0 -3
BITMAP
0000
0100
0100
0000
0600
0200
0200
0400
0400
0400
0800
0800
2800
3000
ENDCHAR
STARTCHAR k
ENCODING 107
SWIDTH 846 0
DWIDTH 11 0
BBX 11 14 0 -3
BITMAP
0000
0c00
0400
0400
0980
0a00
0c00
1400
1200
1280
3900
0000
0000
0000
ENDCHAR
STARTCHAR l
ENCODING 108
SWIDTH 846 0
DWIDTH 11 0
BBX 11 14 0 -3
BITMAP
0000
0300
0100
0100
0200
0200
0200
0400
0400
0500
0600
0000
0000
0000
ENDCHAR
STARTCHAR m
ENCODING 109
SWIDTH 846 0
DWIDTH 11 0
BBX 11 14 0 -3
BITMAP
0000
0000
0000
0000
d980
6640
4440
4440
8880
88a0
88c0
0000
0000
0000
ENDCHAR
STARTCHAR n
ENCODING 110
SWIDTH 846 0
DWIDTH 11 0
BBX 11 14 0 -3
BITMAP
0000
0000
0000
0000
3600
1900
1100
1100
2200
2280
2300
0000
0000
0000
ENDCHAR
STARTCHAR o
ENCODING 111
SWIDTH 846 0
DWIDTH 11 0
BBX 11 14 0 -3
BITMAP
0000
0000
0000
0000
0700
0880
1080
1080
1080
1100
0e00
0000
0000
0000
ENDCHAR
STARTCHAR p
ENCODING 112
SWIDTH 846 0
DWIDTH 11 0
BBX 11 14 0 -3
BITMAP
0000
0000
0000
0000
0f00
0480
0480
0880
0880
0900
0e00
1000
1000
3800
ENDCHAR
STARTCHAR q
ENCODING 113
SWIDTH 846 0
DWIDTH 11 0
BBX 11 14 0 -3
BITMAP
0000
0000
0000
0000
0780
0900
1100
2100
2200
2200
1a00
0400
0400
0e00
ENDCHAR
STARTCHAR r
ENCODING 114
SWIDTH 846 0
DWIDTH 11 0
BBX 11 14 0 -3
BITMAP
0000
0000
0000
0000
0f00
0500
0400
0400
0800
0800
0800
0000
0000
0000
ENDCHAR
STARTCHAR s
ENCODING 115
SWIDTH 846 0
DWIDTH 11 0
BBX 11 14 0 -3
BITMAP
0000
0000
0000
0000
0700
0900
0800
0400
0200
1200
1c00
0000
0000
0000
ENDCHAR
STARTCHAR t
ENCODING 116
SWIDTH 846 0
DWIDTH 11 0
BBX 11 14 0 -3
BITMAP
0000
0000
0200
0200
0f00
0400
0400
0400
0800
0a00
0c00
0000
0000
0000
ENDCHAR
STARTCHAR u
ENCODING 117
SWIDTH 846 0
DWIDTH 11 0
BBX 11 14 0 -3
BITMAP
0000
0000
0000
0000
1880
2880
0880
1100
1100
1340
0d80
0000
0000
0000
ENDCHAR
STARTCHAR v
ENCODING 118
SWIDTH 846 0
DWIDTH 11 0
BBX 11 14 0 -3
BITMAP
0000
0000
0000
0000
1980
0880
0880
0900
0500
0600
0400
0000
0000
0000
ENDCHAR
STARTCHAR w
ENCODING 119
SWIDTH 846 0
DWIDTH 11 0
BBX 11 14 0 -3
BITMAP
0000
0000
0000
0000
6260
2220
2620
2a40
2940
3180
2100
0000
0000
0000
ENDCHAR
STARTCHAR x
ENCODING 120
SWIDTH 846 0
DWIDTH 11 0
BBX 11 14 0 -3
BITMAP
0000
0000
0000
0000
0cc0
1540
0500
0200
0600
2a80
3300
0000
0000
0000
ENDCHAR
STARTCHAR y
ENCODING 121
SWIDTH 846 0
DWIDTH 11 0
BBX 11 14 0 -3
BITMAP
0000
0000
0000
0000
3180
1080
0900
0900
0a00
0400
0400
0800
2800
3000
ENDCHAR
STARTCHAR z
ENCODING 122
SWIDTH 846 0
DWIDTH 11 0
BBX 11 14 0 -3
BITMAP
0000
0000
0000
0000
0f00
1100
0200
0400
0800
1100
1e00
0000
0000
0000
ENDCHAR
STARTCHAR {
ENCODING 123
SWIDTH 846 0
DWIDTH 11 0
BBX 11 14 0 -3
BITMAP
00e0
0100
0100
0200
0200
0c00
3000
0800
0800
0800
0800
1000
1000
0e00
ENDCHAR
STARTCHAR |
ENCODING 124
SWIDTH 846 0
DWIDTH 11 0
BBX 11 14 0 -3
BITMAP
0000
0100
0100
0100
0200
0200
0200
0400
0400
0400
0800
0800
0800
0000
ENDCHAR
STARTCHAR }
ENCODING 125
SWIDTH 846 0
DWIDTH 11 0
BBX 11 14 0 -3
BITMAP
0380
0040
0040
0080
0080
0080
0060
0180
0200
0200
0200
0400
0400
3800
ENDCHAR
STARTCHAR ~
ENCODING 126
SWIDTH 846 0
DWIDTH 11 0
BBX 11 14 0 -3
BITMAP
0000
0000
0000
0000
0c20
1240
2180
0000
0000
0000
0000
0000
0000
0000
ENDCHAR
ENDFONT
